# xmcd
#
# Track frame offsets:
#	150
#	17040
#	31367
#	48261
#	65007
#	80516
#	95535
#	112100
#	126980
#	141172
#	158913
#	173335
#	186645
#
# Disc length: 2693 seconds
#
# Revision: 1
# Processed by: cddbd v1.5.2PL0 Copyright (c) Steve Scherf et al.
# Submitted via: EZCDAudioConverter 3.1.7.1
#
DISCID=b40a830d
DTITLE=Jerrod Niemann - High Noon
DYEAR=2014
DGENRE=Country
TTITLE0=Space
TTITLE1=Buzz Back Girl
TTITLE2=Drink To That All Night
TTITLE3=I Can't Give In Anymore
TTITLE4=We Know How To Rock
TTITLE5=Come On, Come On
TTITLE6=Lucky #7
TTITLE7=Donkey
TTITLE8=Day Drinkin'
TTITLE9=The Real Thing
TTITLE10=Beach Baby
TTITLE11=Refill
TTITLE12=She's Fine
EXTD=
EXTT0=
EXTT1=
EXTT2=
EXTT3=
EXTT4=
EXTT5=
EXTT6=
EXTT7=
EXTT8=
EXTT9=
EXTT10=
EXTT11=
EXTT12=
PLAYORDER=
